<svg width="15" height="15" viewBox="0 0 15 15" fill="none" xmlns="http://www.w3.org/2000/svg">
<path d="M14.25 0H3C2.172 0 1.5 0.672 1.5 1.5V3.75H0V5.25H1.5V6.75H0V8.25H1.5V9.75H0V11.25H1.5V13.5C1.5 14.328 2.172 15 3 15H14.25C14.6648 15 15 14.6648 15 14.25V0.75C15 0.33525 14.6648 0 14.25 0ZM8.25 2.24925C9.486 2.24925 10.5 3.2625 10.5 4.49925C10.5 5.73525 9.486 6.75 8.25 6.75C7.01475 6.75 6 5.73525 6 4.49925C6 3.2625 7.01475 2.24925 8.25 2.24925ZM12.75 12H3.75V11.4375C3.75 9.77325 5.77875 8.0625 8.25 8.0625C10.7213 8.0625 12.75 9.77325 12.75 11.4375V12Z" fill="#0A4D68"/>
</svg>
